Patient4_TMGait_0pt2_02_left_05_GRF.mot
version=1
nRows=38
nColumns=19
inDegrees=no
endheader
time	F1x	F1y	F1z	M1x	M1y	M1z	F2x	F2y	F2z	M2x	M2y	M2z	EC1x	EC1y	EC1z	EC2x	EC2y	EC2z
11.13	0.2943	-0.22921	0.064064	-0.013686	0.5031	-2.5268	-34.1126	908.7284	-32.3914	356.6014	50.2061	916.143	-0.0592	0.0182	-0.0073	-0.0462	0.0165	0.9585
11.1524	0.073429	0.088958	0.082298	-0.09609	0.30143	-1.4271	-31.2231	902.2537	-32.7165	353.6819	48.8181	907.2559	-0.0592	0.0182	-0.0073	-0.0462	0.0165	0.9585
11.1747	-0.10437	0.38369	0.091901	-0.17096	0.12838	-0.47289	-27.9339	891.0499	-33.0996	348.8447	47.2317	893.253	-0.0592	0.0182	-0.0073	-0.0462	0.0165	0.9585
11.1971	-0.23323	0.63248	0.095634	-0.23404	-0.008654	0.27896	-24.3597	875.0292	-33.4798	342.0766	45.481	874.1479	-0.0592	0.0182	-0.0073	-0.0462	0.0165	0.9585
11.2194	-0.32035	0.82657	0.095318	-0.28407	-0.11341	0.82111	-20.6362	855.2796	-33.7555	333.8323	43.5664	851.108	-0.0592	0.0182	-0.0073	-0.0462	0.0165	0.9585
11.2418	-0.37602	0.9613	0.092926	-0.32047	-0.1938	1.1651	-16.9044	833.7616	-33.8209	324.9092	41.4754	826.1402	-0.0592	0.0182	-0.0073	-0.0462	0.0165	0.9585
11.2641	-0.41419	1.0272	0.090919	-0.33859	-0.25742	1.3332	-13.2896	812.7244	-33.601	316.2121	39.2036	801.5091	-0.0592	0.0182	-0.0073	-0.0462	0.0165	0.9585
11.2865	-0.44683	1.009	0.090864	-0.32996	-0.31095	1.3433	-9.8976	794.099	-33.0661	308.5112	36.7684	779.1614	-0.0592	0.0182	-0.0073	-0.0462	0.0165	0.9585
11.3089	-0.48221	0.88221	0.093475	-0.28401	-0.35907	1.1978	-6.8056	779.0651	-32.2259	302.2748	34.2	760.3133	-0.0592	0.0182	-0.0073	-0.0462	0.0165	0.9585
11.3312	-0.52398	0.61329	0.098613	-0.18739	-0.40163	0.88153	-4.0325	767.9398	-31.1307	297.6271	31.5393	745.3276	-0.0592	0.0182	-0.0073	-0.0462	0.0165	0.9585
11.3536	-0.5698	0.168	0.1054	-0.026422	-0.43776	0.37023	-1.5353	760.3161	-29.8611	294.4065	28.8334	733.8448	-0.0592	0.0182	-0.0073	-0.0462	0.0165	0.9585
11.3759	-0.61203	-0.47833	0.11098	0.20859	-0.46439	-0.35272	0.76674	755.3654	-28.508	292.2851	26.132	725.0745	-0.0592	0.0182	-0.0073	-0.0462	0.0165	0.9585
11.3983	-0.63398	-1.3277	0.10974	0.51836	-0.47105	-1.2839	2.9702	752.1727	-27.1674	290.8992	23.4925	718.1215	-0.0592	0.0182	-0.0073	-0.0462	0.0165	0.9585
11.4206	-0.60236	-2.3382	0.096207	0.88568	-0.44236	-2.3758	5.1689	749.981	-25.9457	289.945	20.987	712.2269	-0.0592	0.0182	-0.0073	-0.0462	0.0165	0.9585
11.443	-0.47378	-3.3834	0.063704	1.2639	-0.35749	-3.4946	7.4389	748.3038	-24.9585	289.2206	18.7041	706.8965	-0.0592	0.0182	-0.0073	-0.0462	0.0165	0.9585
11.4654	-0.20205	-4.2172	0.0068935	1.5636	-0.19368	-4.387	9.8119	746.8928	-24.3218	288.6134	16.75	701.8914	-0.0592	0.0182	-0.0073	-0.0462	0.0165	0.9585
11.4877	0.25986	-4.4401	-0.075484	1.6387	0.067056	-4.6416	12.2543	745.6314	-24.1351	288.0611	15.2384	697.133	-0.0592	0.0182	-0.0073	-0.0462	0.0165	0.9585
11.5101	0.95156	-3.4732	-0.17942	1.2766	0.43308	-3.6569	14.6796	744.4478	-24.4513	287.52	14.2603	692.6156	-0.0592	0.0182	-0.0073	-0.0462	0.0165	0.9585
11.5324	1.8913	-0.55458	-0.29796	0.19802	0.9019	-0.6342	16.959	743.2291	-25.2512	286.9342	13.8552	688.3172	-0.0592	0.0182	-0.0073	-0.0462	0.0165	0.9585
11.5548	3.0481	5.2258	-0.41518	-1.9287	1.4444	5.3843	18.9247	741.6991	-26.4444	286.1901	14.0059	684.075	-0.0592	0.0182	-0.0073	-0.0462	0.0165	0.9585
11.5771	4.3085	14.8113	-0.49693	-5.4462	1.9837	15.3886	20.4011	739.326	-27.88	285.0827	14.6362	679.4765	-0.0592	0.0182	-0.0073	-0.0462	0.0165	0.9585
11.5995	5.4354	28.9566	-0.48393	-10.6296	2.3693	30.175	21.2611	735.3376	-29.3632	283.3237	15.6092	673.8517	-0.0592	0.0182	-0.0073	-0.0462	0.0165	0.9585
11.6219	6.0235	47.8744	-0.28885	-17.5581	2.3565	49.9858	21.4606	728.7674	-30.6949	280.5558	16.7499	666.315	-0.0592	0.0182	-0.0073	-0.0462	0.0165	0.9585
11.6442	5.6017	70.8827	0.20272	-25.9815	1.6495	74.1356	21.0341	718.566	-31.7121	276.392	17.8838	655.8779	-0.0592	0.0182	-0.0073	-0.0462	0.0165	0.9585
11.6666	4.165	96.5055	1.1728	-35.3484	0.050114	101.082	20.0851	703.9074	-32.3023	270.5321	18.857	641.7361	-0.0592	0.0182	-0.0073	-0.0462	0.0165	0.9585
11.6889	2.151	122.6857	2.8145	-44.8924	-2.4842	128.6024	18.7761	684.5321	-32.4086	262.8939	19.549	623.577	-0.0592	0.0182	-0.0073	-0.0462	0.0165	0.9585
11.7113	0.069586	147.6334	4.9649	-53.972	-5.5798	154.7217	17.3088	661.013	-32.0319	253.7132	19.8858	601.8302	-0.0592	0.0182	-0.0073	-0.0462	0.0165	0.9585
11.7336	-1.7611	170.8142	7.2559	-62.4219	-8.7193	178.8008	15.9041	634.7275	-31.2384	243.5289	19.8489	577.6454	-0.0592	0.0182	-0.0073	-0.0462	0.0165	0.9585
11.756	-3.2445	192.7481	9.4206	-70.4557	-11.5789	201.3282	14.7338	607.3684	-30.142	232.9954	19.478	552.4668	-0.0592	0.0182	-0.0073	-0.0462	0.0165	0.9585
11.7784	-4.38	214.3735	11.344	-78.4252	-14.0366	223.2452	13.8569	580.3619	-28.8748	222.6572	18.8669	527.5314	-0.0592	0.0182	-0.0073	-0.0462	0.0165	0.9585
11.8007	-5.1618	236.495	13.0463	-86.6205	-16.1132	245.3636	13.2215	554.5219	-27.5734	212.8152	18.1519	503.564	-0.0592	0.0182	-0.0073	-0.0462	0.0165	0.9585
11.8231	-5.5447	259.3992	14.645	-95.1312	-17.9149	267.9621	12.7237	530.006	-26.3505	203.5134	17.4667	480.7282	-0.0592	0.0182	-0.0073	-0.0462	0.0165	0.9585
11.8454	-5.4889	282.8314	16.2634	-103.8444	-19.5576	290.7773	12.2809	506.5022	-25.2731	194.6156	16.8926	458.7754	-0.0592	0.0182	-0.0073	-0.0462	0.0165	0.9585
11.8678	-4.9933	306.2859	17.9418	-112.5595	-21.0911	313.3241	11.8808	483.491	-24.3623	185.9074	16.4432	437.2656	-0.0592	0.0182	-0.0073	-0.0462	0.0165	0.9585
11.8901	-4.1041	329.2683	19.6109	-121.0849	-22.4726	335.1593	11.578	460.4633	-23.6119	177.1782	16.0828	415.7589	-0.0592	0.0182	-0.0073	-0.0462	0.0165	0.9585
11.9125	-2.9095	351.3967	21.1448	-129.2722	-23.6156	355.974	11.4598	437.0969	-23.0014	168.2881	15.7516	393.9755	-0.0592	0.0182	-0.0073	-0.0462	0.0165	0.9585
11.9349	-1.5255	372.3802	22.4424	-137.0077	-24.4666	375.5693	11.6047	413.3429	-22.5047	159.2033	15.392	371.8804	-0.0592	0.0182	-0.0073	-0.0462	0.0165	0.9585
11.9572	-0.089197	392.0305	23.4575	-144.2167	-25.0287	393.864	12.0438	389.3888	-22.0964	149.9861	14.9683	349.6516	-0.0592	0.0182	-0.0073	-0.0462	0.0165	0.9585
